<svg width="238" height="403" viewBox="0 0 238 403" fill="none" xmlns="http://www.w3.org/2000/svg">
<rect width="238" height="403" fill="white"/>
<path d="M151 262.5C151 282.658 133.987 299 113 299C92.0132 299 75 282.658 75 262.5C75 242.342 92.0132 226 113 226C133.987 226 151 242.342 151 262.5Z" fill="#867F7F"/>
<path d="M184 351C184 371.158 133.987 387.5 113 387.5C92.0132 387.5 43 371.158 43 351C43 330.842 92.0132 299 113 299C133.987 299 184 330.842 184 351Z" fill="#867F7F"/>
<rect x="103" y="287" width="20" height="24" fill="#867F7F"/>
<path d="M152.196 263.324C152.196 267.466 151.642 268.732 150.537 268.732C149.433 268.732 148.196 267.466 148.196 263.324C147.354 259.518 149.433 256 150.537 256C151.642 256 154.854 257.518 152.196 263.324Z" fill="#D9D9D9"/>
<path d="M76.2887 263.324C76.197 265.893 75.697 268.732 74.6303 268.732C73.3075 268.732 72.697 267.893 72.697 264.393C70.697 257.393 73.5257 256 74.6303 256C75.7348 256 77.197 257.393 76.2887 263.324Z" fill="#D9D9D9"/>
<path d="M158.604 149.412L147.631 163.626L139.765 166.148C138.808 166.455 138.227 167.424 138.408 168.413L139.844 176.243L135.712 184.332L131.192 190.249C130.866 190.676 130.726 191.216 130.802 191.747L131.985 199.974L129.66 209.058L137.776 216.053L137.737 222.098L144.538 222.049L150.394 228.053L152.156 236.1L169.082 238.744L175.93 243.744L147.631 248.244L130.682 252.744L113.894 250.744L85.8937 245.744L65.8937 245.744L45.3937 241.104L55.8937 233.744L68.3937 230.744L70.3936 228.053L74.8936 224.244L81.8936 220.244L84.8936 212.244L88.8936 208.244L89.8936 202.244L89.8936 197.244L95.8936 189.244L101.394 184.332L102.394 177.744L107.894 171.244L114.894 168.244L115.894 162.244L122.394 159.244L124.394 155.244L132.894 151.244L138.394 149.744L145.394 149.412L150.394 146.437L158.604 144.244L173.894 141.744L183.751 143.416L175.93 143.427L169.082 146.437L158.604 149.412Z" fill="black" stroke="black"/>
</svg>
