<svg width="238" height="403" viewBox="0 0 238 403" fill="none" xmlns="http://www.w3.org/2000/svg">
<rect width="238" height="403" fill="white"/>
<path d="M151 262.5C151 282.658 133.987 299 113 299C92.0132 299 75 282.658 75 262.5C75 242.342 92.0132 226 113 226C133.987 226 151 242.342 151 262.5Z" fill="#867F7F"/>
<path d="M184 351C184 371.158 133.987 387.5 113 387.5C92.0132 387.5 43 371.158 43 351C43 330.842 92.0132 299 113 299C133.987 299 184 330.842 184 351Z" fill="#867F7F"/>
<rect x="103" y="287" width="20" height="24" fill="#867F7F"/>
<path d="M152.196 263.324C152.196 267.466 151.642 268.732 150.537 268.732C149.433 268.732 148.196 267.466 148.196 263.324C147.354 259.518 149.433 256 150.537 256C151.642 256 154.854 257.518 152.196 263.324Z" fill="#D9D9D9"/>
<path d="M76.2887 263.324C76.197 265.893 75.697 268.732 74.6303 268.732C73.3075 268.732 72.697 267.893 72.697 264.393C70.697 257.393 73.5257 256 74.6303 256C75.7348 256 77.197 257.393 76.2887 263.324Z" fill="#D9D9D9"/>
<path d="M163.604 109.412L152.631 123.626L144.765 126.148C143.808 126.455 143.227 127.424 143.408 128.413L144.844 136.243L140.712 144.332L136.192 150.249C135.866 150.676 135.726 151.216 135.802 151.747L136.985 159.974L134.66 169.058L142.776 176.053L142.737 182.098L149.538 182.049L155.394 188.053L157.156 196.1L174.082 198.744L180.93 203.744L152.631 208.244L135.682 212.744L118.894 210.744L90.8937 205.744L70.8937 205.744L50.3937 201.104L60.8937 193.744L73.3937 190.744L75.3936 188.053L79.8936 184.244L86.8936 180.244L89.8936 172.244L93.8936 168.244L94.8936 162.244L94.8936 157.244L100.894 149.244L106.394 144.332L107.394 137.744L112.894 131.244L119.894 128.244L120.894 122.244L127.394 119.244L129.394 115.244L137.894 111.244L143.394 109.744L150.394 109.412L155.394 106.437L163.604 104.244L178.894 101.744L188.751 103.416L180.93 103.427L174.082 106.437L163.604 109.412Z" fill="black" stroke="black"/>
</svg>
